<?xml version="1.0" encoding="UTF-8"?>
<svg version="1.1" viewBox="0 0 1600 1600" width="1280" height="1280" xmlns="http://www.w3.org/2000/svg">
<path transform="translate(1496,206)" d="m0 0c8.67 7.47 16.7 15.5 24.8 23.6 1.05 1.03 1.05 1.03 2.11 2.09 3.68 3.66 7.35 7.32 11 11 3.75 3.75 7.52 7.48 11.3 11.2 2.93 2.91 5.86 5.82 8.78 8.74 1.38 1.38 2.77 2.76 4.16 4.13 10.8 10.7 20.5 21.9 27.5 35.5 0.37 0.7 0.73 1.41 1.11 2.13 3.97 7.91 6.78 16.1 9.14 24.6 0.32 1.12 0.32 1.12 0.64 2.27 8.23 30.4 2.02 62.9-13.4 90.1-2.37 3.99-4.94 7.82-7.61 11.6-0.42 0.61-0.85 1.22-1.29 1.85-1.06 1.44-2.19 2.83-3.33 4.21h-2c-0.41 0.9-0.41 0.9-0.83 1.81-1.14 2.13-2.24 3.51-3.94 5.21-0.57 0.57-1.13 1.15-1.72 1.74-0.63 0.62-1.25 1.24-1.9 1.88-0.67 0.67-1.33 1.34-2.02 2.03-2.26 2.27-4.52 4.53-6.79 6.79-1.64 1.64-3.27 3.28-4.91 4.92-4.05 4.06-8.1 8.11-12.2 12.2-4.89 4.89-9.77 9.78-14.7 14.7-9.13 9.14-18.3 18.3-27.4 27.4l-27.8 27.8c-0.87 0.88-0.87 0.88-1.77 1.78-2.38 2.38-4.75 4.76-7.13 7.14-24.8 24.9-49.7 49.7-74.5 74.6-2.68 2.68-5.36 5.35-8.03 8.03-0.67 0.67-1.33 1.33-2.02 2.01-14.7 14.7-29.4 29.4-44.1 44.1-6.05 6.06-12.1 12.1-18.2 18.2l-2.03 2.03c-38.3 38.4-76.7 76.7-115 115-1.44 1.43-2.88 2.87-4.31 4.3-6.48 6.49-13 13-19.4 19.4l-8.67 8.67c-1.44 1.45-2.89 2.9-4.34 4.34-45.7 45.8-91.5 91.5-137 137-34.1 34.1-68.2 68.2-102 102-0.68 0.69-1.37 1.38-2.08 2.08-15.1 15.1-30.1 30.2-45.2 45.2-5.4 5.39-10.8 10.8-16.2 16.2-1.34 1.35-2.68 2.69-4.03 4.03-21.4 21.4-42.7 42.8-64.1 64.2-21.5 21.6-43 43.1-64.6 64.6-2.97 2.98-5.95 5.95-8.93 8.93-0.58 0.58-1.16 1.17-1.77 1.77-9.23 9.23-18.5 18.5-27.7 27.7-9.07 9.1-18.2 18.2-27.2 27.2-4.86 4.86-9.72 9.71-14.6 14.6-4.41 4.43-8.83 8.85-13.3 13.3-1.59 1.59-3.18 3.18-4.76 4.77-18.6 18.8-39.7 32-66.9 32.2-25.8-0.25-45-11.9-62.8-29.8-1.17-1.2-1.17-1.2-2.37-2.43-2.24-2.28-2.24-2.28-4.68-4.05-2.24-1.88-3.94-3.64-5.82-5.85-3.7-4.27-7.6-8.28-11.6-12.3-1.14-1.13-1.14-1.13-2.3-2.29-2.52-2.53-5.06-5.05-7.59-7.58-1.83-1.83-3.67-3.66-5.5-5.5-3.99-3.98-7.97-7.96-12-11.9l-17.8-17.8c-9.36-9.36-18.7-18.7-28.1-28.1l-44.6-44.6c-5.72-5.72-11.4-11.4-17.2-17.2l-1.92-1.92c-15.1-15.1-30.3-30.2-45.4-45.4l-2.01-2.01c-15.4-15.4-30.9-30.8-46.3-46.3l-2.01-2.01c-5.35-5.34-10.7-10.7-16.1-16-22.1-22.1-44.2-44.1-66.2-66.2l-9.35-9.35c-0.62-0.61-1.23-1.22-1.86-1.86-9.87-9.86-19.7-19.7-29.6-29.6-9.93-9.9-19.8-19.8-29.8-29.7-5.88-5.88-11.8-11.8-17.7-17.6-4.41-4.4-8.82-8.8-13.2-13.2-1.77-1.78-3.55-3.55-5.33-5.32-11.3-11.2-22.5-22.5-30.2-36.6-0.37-0.66-0.73-1.33-1.11-2.01-3.97-7.46-6.74-15.2-9.14-23.2-0.36-1.17-0.36-1.17-0.74-2.36-9.16-30.1-4.65-61 9.74-88.6 0.85-1.64 0.85-1.64 1.71-3.31 8.04-14.5 19.2-26.1 30.8-37.7 1.5-1.5 3-3 4.49-4.5 3.12-3.13 6.25-6.26 9.38-9.38 3.97-3.96 7.93-7.94 11.9-11.9 3.08-3.1 6.17-6.19 9.27-9.28 1.46-1.46 2.92-2.93 4.37-4.4 9.1-9.17 18.4-17.2 29.1-24.5 0.85-0.6 1.71-1.19 2.59-1.8 23.6-16 57.6-19.8 85.1-15 2.45 0.56 4.88 1.16 7.31 1.81 0.64 0.17 1.29 0.33 1.95 0.5 18.5 4.87 35.5 14 49.5 27.1 1.96 1.82 3.94 3.56 5.98 5.3 5.66 4.95 10.9 10.3 16.2 15.6l3.51 3.51c3.2 3.19 6.39 6.39 9.59 9.59 3.45 3.46 6.91 6.91 10.4 10.4 5.98 5.98 12 12 17.9 18 8.64 8.65 17.3 17.3 25.9 25.9 14 14 28 28.1 42.1 42.1 13.6 13.6 27.2 27.3 40.9 40.9 0.84 0.84 1.68 1.68 2.54 2.55 4.22 4.21 8.43 8.43 12.6 12.6 35 35 69.9 69.9 105 105 3.92-1.59 6.55-4.28 9.47-7.23 0.55-0.54 1.09-1.08 1.65-1.64 1.84-1.83 3.66-3.67 5.49-5.51 1.33-1.32 2.66-2.65 3.98-3.98 3.68-3.67 7.35-7.34 11-11 3.98-3.99 7.97-7.98 12-12 7-7 14-14 21-21 7.5-7.51 15-15 22.5-22.5 0.47-0.47 0.95-0.94 1.43-1.43l7.25-7.25c4.95-4.95 9.9-9.91 14.8-14.9 0.5-0.5 1-1 1.51-1.52 11.5-11.5 23-23 34.5-34.5 17.9-17.9 35.7-35.8 53.6-53.7 0.8-0.81 0.8-0.81 1.63-1.64 6.56-6.57 13.1-13.1 19.7-19.7 10-10 20-20 30-30.1l3.37-3.37c26.5-26.5 53-53.1 79.5-79.6l5.28-5.28c27.1-27.1 54.2-54.2 81.2-81.3l3.53-3.53c5.28-5.29 10.6-10.6 15.8-15.9 2.34-2.34 4.68-4.69 7.03-7.04 1.75-1.75 3.51-3.51 5.26-5.27 26.5-26.5 52.9-53 79.4-79.4 0.83-0.84 0.83-0.84 1.68-1.69 11.7-11.7 23.3-23.4 35-35 5.46-5.47 10.9-10.9 16.4-16.4 0.81-0.81 0.81-0.81 1.63-1.64 17.3-17.3 34.6-34.7 52-52 17.4-17.5 34.9-34.9 52.4-52.4 2.41-2.42 4.83-4.83 7.24-7.25 0.71-0.71 0.71-0.71 1.44-1.43 7.93-7.94 15.9-15.9 23.8-23.8 6.9-6.92 13.8-13.8 20.7-20.7 3.94-3.93 7.87-7.87 11.8-11.8 3.58-3.59 7.17-7.18 10.8-10.8 1.29-1.28 2.57-2.57 3.84-3.86 18.6-18.8 38.7-32.8 64.4-39.9 1.82-0.51 1.82-0.51 3.67-1.03 35.8-8.3 75 0.8 103 24z" fill="#000100"/>
</svg>
